<?xml version="1.0" standalone="no"?>
<!DOCTYPE svg PUBLIC "-//W3C//DTD SVG 20010904//EN"
 "http://www.w3.org/TR/2001/REC-SVG-20010904/DTD/svg10.dtd">
<svg version="1.0" xmlns="http://www.w3.org/2000/svg"
 width="256.000000pt" height="256.000000pt" viewBox="0 0 256.000000 256.000000"
 preserveAspectRatio="xMidYMid meet">
<metadata>
Created by potrace 1.14, written by Peter Selinger 2001-2017
</metadata>
<g transform="translate(0.000000,256.000000) scale(0.100000,-0.100000)"
fill="#000000" stroke="none">
<path d="M1130 2553 c-57 -6 -254 -55 -267 -65 -7 -6 -13 -8 -13 -4 0 4 -19
-3 -42 -15 -24 -12 -45 -22 -48 -22 -10 0 -75 -32 -78 -39 -2 -5 -9 -8 -14 -8
-12 0 -97 -51 -140 -84 -14 -12 -40 -32 -58 -45 -88 -67 -233 -236 -291 -336
-117 -208 -170 -393 -174 -620 -8 -362 114 -676 362 -932 57 -58 213 -183 230
-183 7 0 13 -3 13 -7 0 -5 10 -13 23 -19 12 -6 49 -25 82 -42 112 -56 270
-105 390 -120 76 -9 296 -9 355 0 67 11 101 18 145 30 22 6 45 13 50 14 80 21
290 122 348 167 167 130 229 190 313 308 121 169 181 313 230 554 10 53 13
308 3 370 -12 75 -45 206 -67 265 -41 111 -157 319 -183 328 -5 2 -9 8 -9 13
0 31 -179 200 -299 282 -104 72 -311 163 -415 183 -12 2 -46 9 -76 15 -56 11
-306 19 -370 12z"/>
</g>
</svg>
